<svg xmlns="http://www.w3.org/2000/svg" width="178.9mm" height="121.4mm" viewBox="0 0 178.88 121.43"><path d="M 75.58,64.18 L 71.80,60.15 L 70.18,57.77 L 68.23,56.33 L 63.67,53.70 L 58.00,52.16 L 50.67,51.75 L 44.81,51.94 L 41.56,52.32 L 41.62,53.46 L 40.87,53.71 L 0.95,54.44 L 0.74,53.80 L 0.61,27.30 L 0.00,1.11 L 0.05,0.18 L 0.53,0.00 L 38.23,0.50 L 103.36,0.80 L 108.69,1.22 L 112.33,2.12 L 115.25,3.34 L 117.42,4.60 L 122.62,8.83 L 144.49,29.70 L 167.25,51.87 L 167.63,52.26 L 167.25,52.73 L 168.17,52.66 L 168.75,53.25 L 168.65,53.55 L 170.16,54.78 L 178.24,62.87 L 178.40,63.26 L 178.11,65.25 L 178.88,67.30 L 178.70,67.65 L 166.93,79.79 L 160.32,87.01 L 159.55,88.58 L 158.75,89.22 L 158.34,90.16 L 157.43,90.80 L 153.61,95.82 L 152.80,96.46 L 152.40,97.39 L 151.14,98.45 L 142.67,109.68 L 142.15,110.03 L 134.25,120.92 L 133.56,121.43 L 131.81,121.00 L 129.49,121.02 L 122.31,113.32 L 122.40,112.71 L 122.03,112.85 L 122.23,112.55 L 121.51,110.05 L 120.47,108.03 L 118.40,106.95 L 115.56,105.99 L 115.64,105.84 L 115.20,106.02 L 114.98,105.81 L 113.12,103.86 L 113.35,103.53 L 113.38,101.27 L 111.17,101.12 L 110.73,101.31 L 109.68,99.93 L 109.14,99.84 L 108.77,99.03 L 108.48,98.97 L 97.39,87.50 L 80.19,70.70 L 79.39,69.37 L 79.38,68.85 L 75.85,64.50 Z" fill="none" stroke="#000" stroke-width="0.5"/></svg>