0
SECTION
2
ENTITIES
0
POLYLINE
8
parting_Y0
66
1
70
1
0
VERTEX
8
parting_Y0
10
-102.664
20
60.925
30
0.0
0
VERTEX
8
parting_Y0
10
-106.436
20
64.951
30
0.0
0
VERTEX
8
parting_Y0
10
-108.056
20
67.337
30
0.0
0
VERTEX
8
parting_Y0
10
-110.012
20
68.775
30
0.0
0
VERTEX
8
parting_Y0
10
-114.568
20
71.405
30
0.0
0
VERTEX
8
parting_Y0
10
-120.238
20
72.946
30
0.0
0
VERTEX
8
parting_Y0
10
-127.567
20
73.358
30
0.0
0
VERTEX
8
parting_Y0
10
-133.428
20
73.163
30
0.0
0
VERTEX
8
parting_Y0
10
-136.682
20
72.781
30
0.0
0
VERTEX
8
parting_Y0
10
-136.618
20
71.649
30
0.0
0
VERTEX
8
parting_Y0
10
-137.369
20
71.395
30
0.0
0
VERTEX
8
parting_Y0
10
-177.291
20
70.662
30
0.0
0
VERTEX
8
parting_Y0
10
-177.504
20
71.302
30
0.0
0
VERTEX
8
parting_Y0
10
-177.634
20
97.805
30
0.0
0
VERTEX
8
parting_Y0
10
-178.239
20
123.998
30
0.0
0
VERTEX
8
parting_Y0
10
-178.194
20
124.927
30
0.0
0
VERTEX
8
parting_Y0
10
-177.707
20
125.105
30
0.0
0
VERTEX
8
parting_Y0
10
-140.007
20
124.604
30
0.0
0
VERTEX
8
parting_Y0
10
-74.883
20
124.310
30
0.0
0
VERTEX
8
parting_Y0
10
-69.545
20
123.883
30
0.0
0
VERTEX
8
parting_Y0
10
-65.910
20
122.983
30
0.0
0
VERTEX
8
parting_Y0
10
-62.994
20
121.760
30
0.0
0
VERTEX
8
parting_Y0
10
-60.820
20
120.505
30
0.0
0
VERTEX
8
parting_Y0
10
-55.616
20
116.274
30
0.0
0
VERTEX
8
parting_Y0
10
-33.752
20
95.403
30
0.0
0
VERTEX
8
parting_Y0
10
-10.992
20
73.239
30
0.0
0
VERTEX
8
parting_Y0
10
-10.611
20
72.846
30
0.0
0
VERTEX
8
parting_Y0
10
-10.992
20
72.373
30
0.0
0
VERTEX
8
parting_Y0
10
-10.069
20
72.446
30
0.0
0
VERTEX
8
parting_Y0
10
-9.488
20
71.856
30
0.0
0
VERTEX
8
parting_Y0
10
-9.585
20
71.559
30
0.0
0
VERTEX
8
parting_Y0
10
-8.079
20
70.324
30
0.0
0
VERTEX
8
parting_Y0
10
0.002
20
62.239
30
0.0
0
VERTEX
8
parting_Y0
10
0.161
20
61.842
30
0.0
0
VERTEX
8
parting_Y0
10
-0.126
20
59.854
30
0.0
0
VERTEX
8
parting_Y0
10
0.646
20
57.801
30
0.0
0
VERTEX
8
parting_Y0
10
0.463
20
57.456
30
0.0
0
VERTEX
8
parting_Y0
10
-11.306
20
45.314
30
0.0
0
VERTEX
8
parting_Y0
10
-17.917
20
38.094
30
0.0
0
VERTEX
8
parting_Y0
10
-18.690
20
36.527
30
0.0
0
VERTEX
8
parting_Y0
10
-19.484
20
35.885
30
0.0
0
VERTEX
8
parting_Y0
10
-19.896
20
34.949
30
0.0
0
VERTEX
8
parting_Y0
10
-20.807
20
34.308
30
0.0
0
VERTEX
8
parting_Y0
10
-24.631
20
29.283
30
0.0
0
VERTEX
8
parting_Y0
10
-25.443
20
28.646
30
0.0
0
VERTEX
8
parting_Y0
10
-25.844
20
27.716
30
0.0
0
VERTEX
8
parting_Y0
10
-27.099
20
26.660
30
0.0
0
VERTEX
8
parting_Y0
10
-35.565
20
15.422
30
0.0
0
VERTEX
8
parting_Y0
10
-36.085
20
15.070
30
0.0
0
VERTEX
8
parting_Y0
10
-43.984
20
4.187
30
0.0
0
VERTEX
8
parting_Y0
10
-44.677
20
3.675
30
0.0
0
VERTEX
8
parting_Y0
10
-46.434
20
4.108
30
0.0
0
VERTEX
8
parting_Y0
10
-48.749
20
4.084
30
0.0
0
VERTEX
8
parting_Y0
10
-55.934
20
11.783
30
0.0
0
VERTEX
8
parting_Y0
10
-55.835
20
12.398
30
0.0
0
VERTEX
8
parting_Y0
10
-56.207
20
12.253
30
0.0
0
VERTEX
8
parting_Y0
10
-56.007
20
12.554
30
0.0
0
VERTEX
8
parting_Y0
10
-56.725
20
15.055
30
0.0
0
VERTEX
8
parting_Y0
10
-57.770
20
17.079
30
0.0
0
VERTEX
8
parting_Y0
10
-59.843
20
18.159
30
0.0
0
VERTEX
8
parting_Y0
10
-62.675
20
19.112
30
0.0
0
VERTEX
8
parting_Y0
10
-62.597
20
19.264
30
0.0
0
VERTEX
8
parting_Y0
10
-63.038
20
19.086
30
0.0
0
VERTEX
8
parting_Y0
10
-63.261
20
19.291
30
0.0
0
VERTEX
8
parting_Y0
10
-65.118
20
21.249
30
0.0
0
VERTEX
8
parting_Y0
10
-64.892
20
21.574
30
0.0
0
VERTEX
8
parting_Y0
10
-64.859
20
23.837
30
0.0
0
VERTEX
8
parting_Y0
10
-67.074
20
23.980
30
0.0
0
VERTEX
8
parting_Y0
10
-67.510
20
23.794
30
0.0
0
VERTEX
8
parting_Y0
10
-68.562
20
25.180
30
0.0
0
VERTEX
8
parting_Y0
10
-69.098
20
25.260
30
0.0
0
VERTEX
8
parting_Y0
10
-69.472
20
26.076
30
0.0
0
VERTEX
8
parting_Y0
10
-69.757
20
26.138
30
0.0
0
VERTEX
8
parting_Y0
10
-80.848
20
37.607
30
0.0
0
VERTEX
8
parting_Y0
10
-98.049
20
54.403
30
0.0
0
VERTEX
8
parting_Y0
10
-98.849
20
55.737
30
0.0
0
VERTEX
8
parting_Y0
10
-98.863
20
56.252
30
0.0
0
VERTEX
8
parting_Y0
10
-102.385
20
60.605
30
0.0
0
SEQEND
0
ENDSEC
0
EOF